<svg width="27" height="27" viewBox="0 0 27 27" fill="none" xmlns="http://www.w3.org/2000/svg">
<path d="M9.84867 3.91213C9.7806 3.8705 9.7258 3.81035 9.69069 3.7387C9.65558 3.66705 9.64161 3.58689 9.65042 3.50759C9.65923 3.42829 9.69046 3.35315 9.74044 3.29096C9.79042 3.22876 9.85709 3.1821 9.93264 3.15644C11.4624 2.62724 13.0909 2.44592 14.6996 2.62567C16.3082 2.80542 17.8566 3.34172 19.2318 4.19551C19.2829 4.22604 19.327 4.26712 19.3611 4.31601C19.3951 4.3649 19.4184 4.42048 19.4293 4.47906C19.4402 4.53763 19.4386 4.59786 19.4244 4.65574C19.4103 4.71362 19.3839 4.76783 19.3472 4.81475C18.1269 6.36327 16.6372 7.67882 14.9495 8.69813C13.5838 6.78004 11.8498 5.15308 9.84867 3.91213V3.91213ZM13.4487 9.48531C11.912 7.39744 9.89627 5.70926 7.57112 4.56285C7.50247 4.53175 7.42712 4.51834 7.35195 4.52384C7.27678 4.52934 7.20419 4.55358 7.1408 4.59434C5.25949 5.94935 3.85296 7.86267 3.12097 10.0626C3.10365 10.1184 3.09818 10.1772 3.10492 10.2353C3.11165 10.2934 3.13044 10.3494 3.16009 10.3998C3.18973 10.4502 3.22957 10.4938 3.27705 10.5279C3.32454 10.562 3.37862 10.5859 3.43584 10.5978C4.53262 10.8345 5.65142 10.9541 6.77345 10.9547C9.07906 10.9576 11.3574 10.4561 13.4487 9.48531V9.48531ZM24.3431 12.2876C24.0747 9.85313 22.9952 7.57966 21.2784 5.83283C21.236 5.79154 21.1856 5.75944 21.1302 5.73853C21.0749 5.71762 21.0158 5.70836 20.9567 5.71131C20.8976 5.71427 20.8397 5.72938 20.7867 5.75571C20.7337 5.78203 20.6867 5.819 20.6487 5.86431C19.3215 7.55808 17.6959 8.99509 15.8522 10.1045C16.4273 11.1025 16.9053 12.1534 17.2796 13.2427C18.7817 12.8366 20.3311 12.6319 21.8872 12.634C22.5535 12.6355 23.2193 12.6741 23.8813 12.7494C23.9436 12.7561 24.0066 12.7487 24.0656 12.7278C24.1246 12.7069 24.1782 12.6731 24.2225 12.6288C24.2668 12.5846 24.3006 12.5309 24.3215 12.4719C24.3424 12.4129 24.3498 12.3499 24.3431 12.2876V12.2876ZM17.7414 14.8591C18.0497 16.1838 18.2047 17.5397 18.2032 18.8999C18.2024 20.1993 18.0581 21.4946 17.7729 22.7623C17.7542 22.8402 17.7582 22.9219 17.7844 22.9977C17.8107 23.0734 17.8581 23.1401 17.921 23.1897C17.9839 23.2394 18.0597 23.27 18.1395 23.278C18.2193 23.2859 18.2996 23.2709 18.3711 23.2346C19.9637 22.438 21.3375 21.2643 22.3729 19.8155C23.4083 18.3667 24.0738 16.6868 24.3117 14.922C24.319 14.8668 24.3153 14.8107 24.3007 14.757C24.2862 14.7032 24.2611 14.6529 24.2269 14.609C24.1927 14.565 24.1501 14.5283 24.1016 14.501C24.0531 14.4736 23.9996 14.4562 23.9443 14.4497C23.2626 14.3566 22.5752 14.311 21.8872 14.3133C20.4872 14.3116 19.0932 14.4951 17.7414 14.8591V14.8591ZM15.6737 13.7675C15.3411 12.773 14.9049 11.8161 14.3723 10.9127C12.0003 12.0486 9.40338 12.6369 6.77345 12.634C5.54222 12.6333 4.31447 12.5032 3.11047 12.2457C3.05215 12.2336 2.99192 12.234 2.93379 12.247C2.87566 12.2599 2.82095 12.2851 2.7733 12.3209C2.72565 12.3566 2.68615 12.4021 2.65742 12.4543C2.62869 12.5064 2.6114 12.5641 2.60668 12.6235C2.58569 12.9034 2.5752 13.1868 2.5752 13.4736C2.57466 14.9681 2.88191 16.4467 3.4778 17.8173C4.07369 19.1878 4.94545 20.4209 6.03876 21.4398C6.08381 21.4831 6.13817 21.5155 6.19767 21.5345C6.25717 21.5535 6.32023 21.5587 6.38203 21.5495C6.44382 21.5404 6.50271 21.5173 6.55419 21.4819C6.60566 21.4465 6.64835 21.3998 6.67899 21.3454C8.72687 17.8689 11.9001 15.1955 15.6737 13.7675V13.7675ZM8.00144 22.4159C7.97344 22.4641 7.95529 22.5173 7.94805 22.5725C7.94081 22.6277 7.94463 22.6838 7.95928 22.7375C7.97393 22.7912 7.99912 22.8415 8.03339 22.8854C8.06766 22.9293 8.11031 22.9659 8.15887 22.9932C9.7855 23.9118 11.6226 24.3928 13.4907 24.3891C14.1277 24.3919 14.7637 24.3357 15.3904 24.2212C15.4629 24.2091 15.5307 24.1773 15.5863 24.1291C15.6418 24.081 15.683 24.0184 15.7052 23.9483C16.2496 22.3209 16.5261 20.6159 16.5239 18.8999C16.5233 17.7172 16.3931 16.5382 16.1356 15.3839C12.6976 16.725 9.82552 19.2079 8.00144 22.4159V22.4159Z" fill="black"/>
</svg>
