<svg width="28" height="27" viewBox="0 0 28 27" fill="none" xmlns="http://www.w3.org/2000/svg">
<path d="M25.0883 13.4737C25.0829 16.1405 24.1042 18.7136 22.3359 20.7099C20.5677 22.7062 18.1315 23.9884 15.4848 24.3157C15.4258 24.3215 15.3661 24.315 15.3097 24.2966C15.2533 24.2783 15.2012 24.2485 15.1569 24.209C15.1125 24.1696 15.0768 24.1214 15.052 24.0675C15.0271 24.0136 15.0137 23.9552 15.0125 23.8959V15.9926H17.5315C17.6463 15.9929 17.7599 15.9695 17.8654 15.9241C17.9708 15.8787 18.0659 15.8121 18.1445 15.7285C18.2232 15.6448 18.284 15.546 18.3229 15.438C18.3619 15.33 18.3783 15.2151 18.3711 15.1005C18.3525 14.8834 18.2523 14.6814 18.0906 14.5353C17.9289 14.3892 17.7179 14.3099 17.5 14.3133H15.0125V11.7944C15.0125 11.349 15.1894 10.9219 15.5044 10.6069C15.8193 10.292 16.2464 10.1151 16.6918 10.1151H18.3711C18.4859 10.1153 18.5996 10.092 18.705 10.0465C18.8105 10.0011 18.9055 9.93452 18.9842 9.8509C19.0629 9.76729 19.1236 9.66842 19.1626 9.56041C19.2015 9.45241 19.218 9.33755 19.2108 9.22295C19.1922 9.00584 19.092 8.80385 18.9303 8.65775C18.7686 8.51166 18.5575 8.43233 18.3396 8.43578H16.6918C15.8011 8.43578 14.9468 8.78963 14.3169 9.41949C13.6871 10.0494 13.3332 10.9036 13.3332 11.7944V14.3133H10.8143C10.6994 14.3131 10.5858 14.3364 10.4803 14.3819C10.3749 14.4273 10.2799 14.4939 10.2012 14.5775C10.1225 14.6611 10.0618 14.76 10.0228 14.868C9.98384 14.976 9.96744 15.0909 9.97462 15.2055C9.99319 15.4226 10.0934 15.6246 10.2551 15.7707C10.4168 15.9168 10.6279 15.9961 10.8458 15.9926H13.3332V23.8959C13.3335 23.9547 13.3214 24.013 13.2978 24.0668C13.2741 24.1207 13.2394 24.169 13.1958 24.2086C13.1523 24.2482 13.1009 24.2782 13.045 24.2966C12.9891 24.3151 12.93 24.3216 12.8714 24.3157C7.32972 23.644 3.0475 18.8265 3.26791 13.0644C3.39163 10.2188 4.62274 7.53424 6.69844 5.58381C8.77414 3.63338 11.53 2.57155 14.3778 2.62497C17.2256 2.67839 19.9397 3.84283 21.9408 5.86974C23.9419 7.89665 25.0714 10.6255 25.0883 13.4737V13.4737Z" fill="black"/>
</svg>
