<svg width="27" height="27" viewBox="0 0 27 27" fill="none" xmlns="http://www.w3.org/2000/svg">
<path d="M13.5149 16.8324C15.3698 16.8324 16.8735 15.3287 16.8735 13.4738C16.8735 11.6189 15.3698 10.1152 13.5149 10.1152C11.6599 10.1152 10.1562 11.6189 10.1562 13.4738C10.1562 15.3287 11.6599 16.8324 13.5149 16.8324Z" fill="black"/>
<path d="M18.1323 2.97827H8.89611C7.33729 2.97827 5.84231 3.59751 4.74005 4.69977C3.6378 5.80202 3.01855 7.297 3.01855 8.85583V18.092C3.01855 19.6508 3.6378 21.1458 4.74005 22.248C5.84231 23.3503 7.33729 23.9695 8.89611 23.9695H18.1323C19.6911 23.9695 21.1861 23.3503 22.2883 22.248C23.3906 21.1458 24.0098 19.6508 24.0098 18.092V8.85583C24.0098 7.297 23.3906 5.80202 22.2883 4.69977C21.1861 3.59751 19.6911 2.97827 18.1323 2.97827V2.97827ZM13.5142 18.5118C12.5178 18.5118 11.5438 18.2163 10.7153 17.6628C9.8868 17.1092 9.24108 16.3224 8.85977 15.4018C8.47847 14.4813 8.3787 13.4683 8.57309 12.4911C8.76748 11.5138 9.24729 10.6161 9.95185 9.91157C10.6564 9.20701 11.5541 8.72719 12.5313 8.5328C13.5086 8.33842 14.5216 8.43818 15.4421 8.81949C16.3627 9.2008 17.1495 9.84652 17.7031 10.675C18.2566 11.5035 18.5521 12.4775 18.5521 13.4739C18.5521 14.81 18.0213 16.0915 17.0765 17.0362C16.1317 17.981 14.8503 18.5118 13.5142 18.5118ZM18.9719 9.27565C18.7228 9.27565 18.4793 9.20179 18.2722 9.06339C18.0651 8.925 17.9036 8.7283 17.8083 8.49816C17.713 8.26802 17.688 8.01478 17.7366 7.77046C17.7852 7.52615 17.9052 7.30173 18.0813 7.12559C18.2575 6.94945 18.4819 6.8295 18.7262 6.7809C18.9705 6.7323 19.2238 6.75725 19.4539 6.85257C19.684 6.9479 19.8807 7.10933 20.0191 7.31645C20.1575 7.52357 20.2314 7.76708 20.2314 8.01618C20.2314 8.35021 20.0987 8.67056 19.8625 8.90676C19.6263 9.14296 19.306 9.27565 18.9719 9.27565Z" fill="black"/>
</svg>
