<svg width="28" height="27" viewBox="0 0 28 27" fill="none" xmlns="http://www.w3.org/2000/svg">
<path d="M22.6479 2.97827H5.01524C4.56986 2.97827 4.14272 3.1552 3.82779 3.47013C3.51286 3.78506 3.33594 4.21219 3.33594 4.65757V22.2902C3.33594 22.7356 3.51286 23.1628 3.82779 23.4777C4.14272 23.7926 4.56986 23.9695 5.01524 23.9695H22.6479C23.0933 23.9695 23.5204 23.7926 23.8354 23.4777C24.1503 23.1628 24.3272 22.7356 24.3272 22.2902V4.65757C24.3272 4.21219 24.1503 3.78506 23.8354 3.47013C23.5204 3.1552 23.0933 2.97827 22.6479 2.97827ZM10.473 18.5118C10.473 18.7345 10.3845 18.9481 10.227 19.1055C10.0696 19.263 9.85601 19.3515 9.63332 19.3515C9.41063 19.3515 9.19706 19.263 9.0396 19.1055C8.88213 18.9481 8.79367 18.7345 8.79367 18.5118V11.7946C8.79367 11.5719 8.88213 11.3583 9.0396 11.2009C9.19706 11.0434 9.41063 10.955 9.63332 10.955C9.85601 10.955 10.0696 11.0434 10.227 11.2009C10.3845 11.3583 10.473 11.5719 10.473 11.7946V18.5118ZM9.63332 9.69548C9.38422 9.69548 9.14071 9.62161 8.93359 9.48322C8.72647 9.34483 8.56504 9.14812 8.46971 8.91798C8.37439 8.68784 8.34945 8.4346 8.39804 8.19029C8.44664 7.94598 8.56659 7.72156 8.74273 7.54542C8.91888 7.36928 9.14329 7.24932 9.38761 7.20073C9.63192 7.15213 9.88516 7.17707 10.1153 7.2724C10.3454 7.36772 10.5421 7.52915 10.6805 7.73627C10.8189 7.94339 10.8928 8.1869 10.8928 8.436C10.8928 8.77004 10.7601 9.09039 10.5239 9.32659C10.2877 9.56278 9.96735 9.69548 9.63332 9.69548V9.69548ZM19.7091 18.5118C19.7091 18.7345 19.6207 18.9481 19.4632 19.1055C19.3057 19.263 19.0922 19.3515 18.8695 19.3515C18.6468 19.3515 18.4332 19.263 18.2758 19.1055C18.1183 18.9481 18.0298 18.7345 18.0298 18.5118V14.7334C18.0298 14.1767 17.8087 13.6427 17.415 13.2491C17.0213 12.8554 16.4874 12.6343 15.9307 12.6343C15.374 12.6343 14.8401 12.8554 14.4464 13.2491C14.0527 13.6427 13.8316 14.1767 13.8316 14.7334V18.5118C13.8316 18.7345 13.7431 18.9481 13.5856 19.1055C13.4282 19.263 13.2146 19.3515 12.9919 19.3515C12.7692 19.3515 12.5557 19.263 12.3982 19.1055C12.2407 18.9481 12.1523 18.7345 12.1523 18.5118V11.7946C12.1517 11.588 12.2273 11.3884 12.3647 11.234C12.5021 11.0797 12.6916 10.9814 12.8969 10.958C13.1022 10.9346 13.3089 10.9877 13.4775 11.1072C13.6461 11.2267 13.7647 11.4042 13.8106 11.6057C14.3787 11.2205 15.0411 10.9974 15.7264 10.9603C16.4118 10.9232 17.0944 11.0735 17.7008 11.3951C18.3072 11.7166 18.8145 12.1973 19.1684 12.7854C19.5222 13.3736 19.7092 14.047 19.7091 14.7334V18.5118Z" fill="black"/>
</svg>
