<svg width="28" height="27" viewBox="0 0 28 27" fill="none" xmlns="http://www.w3.org/2000/svg">
<path d="M26.2088 8.1945L23.0391 11.3537C22.4094 18.6901 16.2169 24.3893 8.81753 24.3893C7.29566 24.3893 6.03618 24.1479 5.08108 23.6756C4.3149 23.2872 4.00003 22.8779 3.91607 22.7519C3.84659 22.6464 3.80183 22.5266 3.7851 22.4014C3.76838 22.2762 3.78013 22.1488 3.81947 22.0287C3.85882 21.9087 3.92474 21.799 4.01234 21.708C4.09994 21.617 4.20695 21.5469 4.3254 21.503C4.34639 21.4925 6.82336 20.5479 8.42919 18.7321C7.4333 18.023 6.55798 17.1583 5.83677 16.1712C4.39886 14.219 2.877 10.8289 3.79012 5.77001C3.81882 5.61961 3.88761 5.47976 3.98922 5.36522C4.09082 5.25068 4.22148 5.16571 4.36738 5.11928C4.51374 5.07135 4.67047 5.06461 4.82041 5.09978C4.97036 5.13495 5.10774 5.21069 5.21752 5.3187C5.24901 5.36068 8.74406 8.80325 13.0158 9.91579V9.27555C13.0199 8.60983 13.1551 7.95143 13.4137 7.33796C13.6723 6.72449 14.0491 6.16796 14.5228 5.70014C14.9965 5.23233 15.5576 4.86239 16.1743 4.61146C16.7909 4.36052 17.4509 4.2335 18.1167 4.23765C18.9904 4.25011 19.846 4.48868 20.6002 4.93013C21.3543 5.37157 21.9812 6.00083 22.4199 6.7566H25.6105C25.7763 6.75608 25.9385 6.80464 26.0767 6.89616C26.215 6.98768 26.323 7.11807 26.3872 7.27089C26.4477 7.42598 26.4631 7.59503 26.4315 7.75848C26.3999 7.92193 26.3227 8.0731 26.2088 8.1945V8.1945Z" fill="black"/>
</svg>
